<svg width="217" height="243" viewBox="0 0 217 243" fill="none" xmlns="http://www.w3.org/2000/svg">
<path d="M80.5 0.5V12H34.5C25.35 12 16.5748 15.6348 10.1048 22.1048C3.63481 28.5748 0 37.35 0 46.5V81C0 96.2499 6.05802 110.875 16.8414 121.659C27.6247 132.442 42.2501 138.5 57.5 138.5H126.5C141.75 138.5 156.375 132.442 167.159 121.659C177.942 110.875 184 96.2499 184 81V46.5C184 37.35 180.365 28.5748 173.895 22.1048C167.425 15.6348 158.65 12 149.5 12H103.5V0.5H80.5ZM23 46.5C23 43.45 24.2116 40.5249 26.3683 38.3683C28.5249 36.2116 31.45 35 34.5 35H149.5C152.55 35 155.475 36.2116 157.632 38.3683C159.788 40.5249 161 43.45 161 46.5V81C161 90.15 157.365 98.9252 150.895 105.395C144.425 111.865 135.65 115.5 126.5 115.5H57.5C48.35 115.5 39.5748 111.865 33.1048 105.395C26.6348 98.9252 23 90.15 23 81V46.5ZM63.25 92.5C67.825 92.5 72.2126 90.6826 75.4476 87.4476C78.6826 84.2126 80.5 79.825 80.5 75.25C80.5 70.675 78.6826 66.2874 75.4476 63.0524C72.2126 59.8174 67.825 58 63.25 58C58.675 58 54.2874 59.8174 51.0524 63.0524C47.8174 66.2874 46 70.675 46 75.25C46 79.825 47.8174 84.2126 51.0524 87.4476C54.2874 90.6826 58.675 92.5 63.25 92.5ZM120.75 92.5C125.325 92.5 129.713 90.6826 132.948 87.4476C136.183 84.2126 138 79.825 138 75.25C138 70.675 136.183 66.2874 132.948 63.0524C129.713 59.8174 125.325 58 120.75 58C116.175 58 111.787 59.8174 108.552 63.0524C105.317 66.2874 103.5 70.675 103.5 75.25C103.5 79.825 105.317 84.2126 108.552 87.4476C111.787 90.6826 116.175 92.5 120.75 92.5ZM23 242C23 223.7 30.2696 206.15 43.2096 193.21C56.1496 180.27 73.7001 173 92 173C110.3 173 127.85 180.27 140.79 193.21C153.73 206.15 161 223.7 161 242H184C184 217.6 174.307 194.2 157.054 176.946C139.8 159.693 116.4 150 92 150C67.6001 150 44.1995 159.693 26.9462 176.946C9.69283 194.2 0 217.6 0 242H23Z" fill="black"/>
<path d="M207 110L197 232.704" stroke="black" stroke-width="19" stroke-linecap="round"/>
</svg>
