<svg width="270" height="270" viewBox="0 0 270 270" fill="none" xmlns="http://www.w3.org/2000/svg">
<g id="ri:robot-3-line">
<path id="Vector" d="M123.75 11.25V22.5H78.75C69.7989 22.5 61.2145 26.0558 54.8851 32.3851C48.5558 38.7145 45 47.2989 45 56.25V90C45 104.918 50.9263 119.226 61.4752 129.775C72.0242 140.324 86.3316 146.25 101.25 146.25H168.75C183.668 146.25 197.976 140.324 208.525 129.775C219.074 119.226 225 104.918 225 90V56.25C225 47.2989 221.444 38.7145 215.115 32.3851C208.786 26.0558 200.201 22.5 191.25 22.5H146.25V11.25H123.75ZM67.5 56.25C67.5 53.2663 68.6853 50.4048 70.7951 48.2951C72.9048 46.1853 75.7663 45 78.75 45H191.25C194.234 45 197.095 46.1853 199.205 48.2951C201.315 50.4048 202.5 53.2663 202.5 56.25V90C202.5 98.9511 198.944 107.536 192.615 113.865C186.286 120.194 177.701 123.75 168.75 123.75H101.25C92.2989 123.75 83.7145 120.194 77.3851 113.865C71.0558 107.536 67.5 98.9511 67.5 90V56.25ZM106.875 101.25C111.351 101.25 115.643 99.4721 118.807 96.3074C121.972 93.1428 123.75 88.8505 123.75 84.375C123.75 79.8995 121.972 75.6072 118.807 72.4426C115.643 69.2779 111.351 67.5 106.875 67.5C102.399 67.5 98.1072 69.2779 94.9426 72.4426C91.7779 75.6072 90 79.8995 90 84.375C90 88.8505 91.7779 93.1428 94.9426 96.3074C98.1072 99.4721 102.399 101.25 106.875 101.25ZM163.125 101.25C167.601 101.25 171.893 99.4721 175.057 96.3074C178.222 93.1428 180 88.8505 180 84.375C180 79.8995 178.222 75.6072 175.057 72.4426C171.893 69.2779 167.601 67.5 163.125 67.5C158.649 67.5 154.357 69.2779 151.193 72.4426C148.028 75.6072 146.25 79.8995 146.25 84.375C146.25 88.8505 148.028 93.1428 151.193 96.3074C154.357 99.4721 158.649 101.25 163.125 101.25ZM67.5 247.5C67.5 229.598 74.6116 212.429 87.2703 199.77C99.929 187.112 117.098 180 135 180C152.902 180 170.071 187.112 182.73 199.77C195.388 212.429 202.5 229.598 202.5 247.5H225C225 223.631 215.518 200.739 198.64 183.86C181.761 166.982 158.869 157.5 135 157.5C111.131 157.5 88.2387 166.982 71.3604 183.86C54.4821 200.739 45 223.631 45 247.5H67.5Z" fill="black"/>
</g>
</svg>
