<svg width="180" height="237" viewBox="0 0 180 237" fill="none" xmlns="http://www.w3.org/2000/svg">
<rect width="180" height="237" fill="#1E1E1E"/>
<g clip-path="url(#clip0_0_1)">
<rect width="2111" height="2686" transform="translate(-1690 -2401)" fill="#FDFFFA"/>
<rect x="-1690" y="-2401" width="2111.46" height="3936" fill="#FCFCFC"/>
</g>
<path d="M78.75 0.25V11.5H33.75C24.7989 11.5 16.2145 15.0558 9.88515 21.3851C3.55579 27.7145 0 36.2989 0 45.25V79C0 93.9184 5.92632 108.226 16.4752 118.775C27.0242 129.324 41.3316 135.25 56.25 135.25H123.75C138.668 135.25 152.976 129.324 163.525 118.775C174.074 108.226 180 93.9184 180 79V45.25C180 36.2989 176.444 27.7145 170.115 21.3851C163.786 15.0558 155.201 11.5 146.25 11.5H101.25V0.25H78.75ZM22.5 45.25C22.5 42.2663 23.6853 39.4048 25.7951 37.2951C27.9048 35.1853 30.7663 34 33.75 34H146.25C149.234 34 152.095 35.1853 154.205 37.2951C156.315 39.4048 157.5 42.2663 157.5 45.25V79C157.5 87.9511 153.944 96.5355 147.615 102.865C141.286 109.194 132.701 112.75 123.75 112.75H56.25C47.2989 112.75 38.7145 109.194 32.3851 102.865C26.0558 96.5355 22.5 87.9511 22.5 79V45.25ZM61.875 90.25C66.3505 90.25 70.6428 88.4721 73.8074 85.3074C76.9721 82.1428 78.75 77.8505 78.75 73.375C78.75 68.8995 76.9721 64.6072 73.8074 61.4426C70.6428 58.2779 66.3505 56.5 61.875 56.5C57.3995 56.5 53.1072 58.2779 49.9426 61.4426C46.7779 64.6072 45 68.8995 45 73.375C45 77.8505 46.7779 82.1428 49.9426 85.3074C53.1072 88.4721 57.3995 90.25 61.875 90.25ZM118.125 90.25C122.601 90.25 126.893 88.4721 130.057 85.3074C133.222 82.1428 135 77.8505 135 73.375C135 68.8995 133.222 64.6072 130.057 61.4426C126.893 58.2779 122.601 56.5 118.125 56.5C113.649 56.5 109.357 58.2779 106.193 61.4426C103.028 64.6072 101.25 68.8995 101.25 73.375C101.25 77.8505 103.028 82.1428 106.193 85.3074C109.357 88.4721 113.649 90.25 118.125 90.25ZM22.5 236.5C22.5 218.598 29.6116 201.429 42.2703 188.77C54.929 176.112 72.0979 169 90 169C107.902 169 125.071 176.112 137.73 188.77C150.388 201.429 157.5 218.598 157.5 236.5H180C180 212.631 170.518 189.739 153.64 172.86C136.761 155.982 113.869 146.5 90 146.5C66.1305 146.5 43.2387 155.982 26.3604 172.86C9.48212 189.739 0 212.631 0 236.5H22.5Z" fill="black"/>
<defs>
<clipPath id="clip0_0_1">
<rect width="2111" height="2686" fill="white" transform="translate(-1690 -2401)"/>
</clipPath>
</defs>
</svg>
